<?xml version="1.0" encoding="UTF-8"?>
<svg width="20px" height="20px" version="1.1" viewBox="0 0 100 100" xmlns="http://www.w3.org/2000/svg">
 <path d="m48 79.93v-8c-6.8164-0.60156-12.969-4.3398-16.637-10.117-3.6719-5.7773-4.4414-12.934-2.0898-19.363 2.3555-6.4258 7.5664-11.391 14.098-13.434 6.5312-2.0391 13.645-0.92578 19.238 3.0195 5.5938 3.9414 9.0352 10.266 9.3047 17.102 0.27344 6.8398-2.6523 13.418-7.9141 17.793v-10.93h-8v20c0 1.0625 0.42188 2.0781 1.1719 2.8281s1.7656 1.1719 2.8281 1.1719h20v-8h-9.6602c6.8086-6.3047 10.312-15.406 9.4961-24.652-0.82031-9.2422-5.8711-17.586-13.68-22.602-7.8086-5.0117-17.496-6.1289-26.242-3.0234-8.7422 3.1016-15.559 10.078-18.461 18.895-2.8984 8.8125-1.5586 18.473 3.6367 26.164 5.1914 7.6914 13.652 12.547 22.91 13.148z"/>
</svg>
